<svg width="326" height="326" viewBox="0 0 326 326" fill="none" xmlns="http://www.w3.org/2000/svg">
<path fill-rule="evenodd" clip-rule="evenodd" d="M163 40.75C95.4833 40.75 40.75 95.4833 40.75 163C40.75 230.517 95.4833 285.25 163 285.25C230.517 285.25 285.25 230.517 285.25 163C285.25 95.4833 230.517 40.75 163 40.75ZM13.5834 163C13.5834 80.4795 80.4795 13.5834 163 13.5834C245.52 13.5834 312.417 80.4795 312.417 163C312.417 245.52 245.52 312.417 163 312.417C80.4795 312.417 13.5834 245.52 13.5834 163Z" fill="#13C354"/>
<path fill-rule="evenodd" clip-rule="evenodd" d="M163 67.9166C170.502 67.9166 176.583 73.9982 176.583 81.5V154.605L223.408 178.018C230.118 181.373 232.837 189.531 229.482 196.241C226.127 202.951 217.969 205.671 211.259 202.316L156.926 175.149C152.324 172.848 149.417 168.145 149.417 163V81.5C149.417 73.9982 155.498 67.9166 163 67.9166Z" fill="#13C354"/>
</svg>
