<svg width="356" height="356" viewBox="0 0 356 356" fill="none" xmlns="http://www.w3.org/2000/svg">
<g clip-path="url(#clip0)">
<path fill-rule="evenodd" clip-rule="evenodd" d="M4.34458 4.34458C10.1374 -1.44819 19.5293 -1.44819 25.3221 4.34458L351.655 330.678C357.448 336.47 357.448 345.863 351.655 351.655C345.863 357.449 336.47 357.449 330.678 351.655L4.34458 25.3221C-1.44819 19.5294 -1.44819 10.1374 4.34458 4.34458Z" fill="#13C354"/>
<path fill-rule="evenodd" clip-rule="evenodd" d="M48.363 27.7385C45.9127 31.7815 44.5 36.5256 44.5 41.5994V308.467C44.5 323.258 56.454 335.233 71.2002 335.233H284.8C299.509 335.233 311.5 323.25 311.5 308.467V290.876L284.785 264.161C284.787 290.659 284.791 308.533 284.8 308.533C284.8 308.533 71.2 308.523 71.2 308.467C71.2 308.467 71.2264 97.2465 71.2089 50.5844L48.363 27.7385ZM284.785 222.206C284.787 144.221 284.8 41.5994 284.8 41.5994C284.8 41.5578 164.034 41.5414 104.115 41.5359L77.4128 14.8334H284.8C299.546 14.8334 311.5 26.8086 311.5 41.5994V248.921L284.785 222.206ZM115.558 94.9334H111.189C103.896 94.9334 97.9 100.91 97.9 108.283C97.9 115.708 103.85 121.633 111.189 121.633H142.258L115.558 94.9334ZM168.958 148.333H111.189C103.896 148.333 97.9 154.31 97.9 161.683C97.9 169.107 103.85 175.033 111.189 175.033H195.658L168.958 148.333ZM111.307 201.733C103.921 201.733 97.9 207.71 97.9 215.083C97.9 222.507 103.902 228.433 111.307 228.433H164.594C171.979 228.433 178 222.457 178 215.083C178 207.659 171.997 201.733 164.594 201.733H111.307Z" fill="#13C354"/>
</g>
<defs>
<clipPath id="clip0">
<rect width="356" height="356" fill="white"/>
</clipPath>
</defs>
</svg>
