<svg width="170" height="208" viewBox="0 0 170 208" fill="none" xmlns="http://www.w3.org/2000/svg">
<path fill-rule="evenodd" clip-rule="evenodd" d="M81.6938 1.01619C83.8257 0.216771 86.1743 0.216771 88.3062 1.01619L163.64 29.2662C167.315 30.6444 169.75 34.1581 169.75 38.0833V104C169.75 136.454 148.264 162.386 128.868 179.358C118.972 188.016 109.121 194.784 101.762 199.383C98.0722 201.689 94.9845 203.465 92.7979 204.676C91.7037 205.282 90.8327 205.747 90.2234 206.067C89.9183 206.227 89.6782 206.352 89.5087 206.438L89.3062 206.542L89.245 206.572L89.2243 206.582C89.2215 206.584 89.2111 206.589 85 198.167C80.7889 206.589 80.786 206.588 80.7832 206.586L80.755 206.572L80.6938 206.542L80.4913 206.438C80.3218 206.352 80.0817 206.227 79.7766 206.067C79.1673 205.747 78.2963 205.282 77.2021 204.676C75.0155 203.465 71.9278 201.689 68.2383 199.383C60.8796 194.784 51.0282 188.016 41.1325 179.358C21.7365 162.386 0.25 136.454 0.25 104V38.0833C0.25 34.1581 2.68487 30.6444 6.36029 29.2662L81.6938 1.01619ZM85 198.167L80.7832 206.586C83.434 207.912 86.5603 207.915 89.2111 206.589L85 198.167ZM85 187.458C86.8042 186.434 89.1123 185.08 91.78 183.414C98.5459 179.184 107.528 173.004 116.466 165.184C134.736 149.197 150.917 128.046 150.917 104V44.609L85 19.8903L19.0833 44.609V104C19.0833 128.046 35.2635 149.197 53.5342 165.184C62.4718 173.004 71.4541 179.184 78.22 183.414C80.8877 185.08 83.1958 186.434 85 187.458Z" fill="#13C354"/>
</svg>
