<svg width="611" height="458" viewBox="0 0 611 458" fill="none" xmlns="http://www.w3.org/2000/svg">
<path d="M610.727 442.653H426.224V441.146H611L610.727 442.653Z" fill="#2C3E33"/>
<path d="M29.6058 10.63C32.5428 10.63 34.9238 8.25053 34.9238 5.31528C34.9238 2.38003 32.5428 0.000541687 29.6058 0.000541687C26.6688 0.000541687 24.2878 2.38003 24.2878 5.31528C24.2878 8.25053 26.6688 10.63 29.6058 10.63Z" fill="#E6E6E6"/>
<path d="M56.5252 10.63C59.4623 10.63 61.8432 8.25053 61.8432 5.31528C61.8432 2.38003 59.4623 0.000541687 56.5252 0.000541687C53.5882 0.000541687 51.2073 2.38003 51.2073 5.31528C51.2073 8.25053 53.5882 10.63 56.5252 10.63Z" fill="#E6E6E6"/>
<path d="M83.4447 10.63C86.3818 10.63 88.7627 8.25053 88.7627 5.31528C88.7627 2.38003 86.3818 0.000541687 83.4447 0.000541687C80.5077 0.000541687 78.1268 2.38003 78.1268 5.31528C78.1268 8.25053 80.5077 10.63 83.4447 10.63Z" fill="#E6E6E6"/>
<path d="M110.364 10.63C113.301 10.63 115.682 8.25053 115.682 5.31528C115.682 2.38003 113.301 0.000541687 110.364 0.000541687C107.427 0.000541687 105.046 2.38003 105.046 5.31528C105.046 8.25053 107.427 10.63 110.364 10.63Z" fill="#E6E6E6"/>
<path d="M137.284 10.63C140.221 10.63 142.602 8.25053 142.602 5.31528C142.602 2.38003 140.221 0.000541687 137.284 0.000541687C134.347 0.000541687 131.966 2.38003 131.966 5.31528C131.966 8.25053 134.347 10.63 137.284 10.63Z" fill="#E6E6E6"/>
<path d="M164.203 10.63C167.14 10.63 169.521 8.25053 169.521 5.31528C169.521 2.38003 167.14 0.000541687 164.203 0.000541687C161.266 0.000541687 158.885 2.38003 158.885 5.31528C158.885 8.25053 161.266 10.63 164.203 10.63Z" fill="#E6E6E6"/>
<path d="M191.123 10.63C194.06 10.63 196.441 8.25053 196.441 5.31528C196.441 2.38003 194.06 0.000541687 191.123 0.000541687C188.186 0.000541687 185.805 2.38003 185.805 5.31528C185.805 8.25053 188.186 10.63 191.123 10.63Z" fill="#E6E6E6"/>
<path d="M218.042 10.63C220.979 10.63 223.36 8.25053 223.36 5.31528C223.36 2.38003 220.979 0.000541687 218.042 0.000541687C215.105 0.000541687 212.724 2.38003 212.724 5.31528C212.724 8.25053 215.105 10.63 218.042 10.63Z" fill="#E6E6E6"/>
<path d="M244.962 10.63C247.899 10.63 250.28 8.25053 250.28 5.31528C250.28 2.38003 247.899 0.000541687 244.962 0.000541687C242.025 0.000541687 239.644 2.38003 239.644 5.31528C239.644 8.25053 242.025 10.63 244.962 10.63Z" fill="#E6E6E6"/>
<path d="M271.881 10.63C274.818 10.63 277.199 8.25053 277.199 5.31528C277.199 2.38003 274.818 0.000541687 271.881 0.000541687C268.944 0.000541687 266.563 2.38003 266.563 5.31528C266.563 8.25053 268.944 10.63 271.881 10.63Z" fill="#E6E6E6"/>
<path d="M29.6058 37.8708C32.5428 37.8708 34.9238 35.4913 34.9238 32.5561C34.9238 29.6208 32.5428 27.2414 29.6058 27.2414C26.6688 27.2414 24.2878 29.6208 24.2878 32.5561C24.2878 35.4913 26.6688 37.8708 29.6058 37.8708Z" fill="#E6E6E6"/>
<path d="M56.5252 37.8708C59.4623 37.8708 61.8432 35.4913 61.8432 32.5561C61.8432 29.6208 59.4623 27.2414 56.5252 27.2414C53.5882 27.2414 51.2073 29.6208 51.2073 32.5561C51.2073 35.4913 53.5882 37.8708 56.5252 37.8708Z" fill="#E6E6E6"/>
<path d="M83.4447 37.8708C86.3818 37.8708 88.7627 35.4913 88.7627 32.5561C88.7627 29.6208 86.3818 27.2414 83.4447 27.2414C80.5077 27.2414 78.1268 29.6208 78.1268 32.5561C78.1268 35.4913 80.5077 37.8708 83.4447 37.8708Z" fill="#E6E6E6"/>
<path d="M110.364 37.8708C113.301 37.8708 115.682 35.4913 115.682 32.5561C115.682 29.6208 113.301 27.2414 110.364 27.2414C107.427 27.2414 105.046 29.6208 105.046 32.5561C105.046 35.4913 107.427 37.8708 110.364 37.8708Z" fill="#13C354"/>
<path d="M137.284 37.8708C140.221 37.8708 142.602 35.4913 142.602 32.5561C142.602 29.6208 140.221 27.2414 137.284 27.2414C134.347 27.2414 131.966 29.6208 131.966 32.5561C131.966 35.4913 134.347 37.8708 137.284 37.8708Z" fill="#E6E6E6"/>
<path d="M164.203 37.8708C167.14 37.8708 169.521 35.4913 169.521 32.5561C169.521 29.6208 167.14 27.2414 164.203 27.2414C161.266 27.2414 158.885 29.6208 158.885 32.5561C158.885 35.4913 161.266 37.8708 164.203 37.8708Z" fill="#E6E6E6"/>
<path d="M191.123 37.8708C194.06 37.8708 196.441 35.4913 196.441 32.5561C196.441 29.6208 194.06 27.2414 191.123 27.2414C188.186 27.2414 185.805 29.6208 185.805 32.5561C185.805 35.4913 188.186 37.8708 191.123 37.8708Z" fill="#E6E6E6"/>
<path d="M218.042 37.8708C220.979 37.8708 223.36 35.4913 223.36 32.5561C223.36 29.6208 220.979 27.2414 218.042 27.2414C215.105 27.2414 212.724 29.6208 212.724 32.5561C212.724 35.4913 215.105 37.8708 218.042 37.8708Z" fill="#E6E6E6"/>
<path d="M244.962 37.8708C247.899 37.8708 250.28 35.4913 250.28 32.5561C250.28 29.6208 247.899 27.2414 244.962 27.2414C242.025 27.2414 239.644 29.6208 239.644 32.5561C239.644 35.4913 242.025 37.8708 244.962 37.8708Z" fill="#E6E6E6"/>
<path d="M271.881 37.8708C274.818 37.8708 277.199 35.4913 277.199 32.5561C277.199 29.6208 274.818 27.2414 271.881 27.2414C268.944 27.2414 266.563 29.6208 266.563 32.5561C266.563 35.4913 268.944 37.8708 271.881 37.8708Z" fill="#E6E6E6"/>
<path d="M29.6058 65.1117C32.5428 65.1117 34.9238 62.7322 34.9238 59.7969C34.9238 56.8617 32.5428 54.4822 29.6058 54.4822C26.6688 54.4822 24.2878 56.8617 24.2878 59.7969C24.2878 62.7322 26.6688 65.1117 29.6058 65.1117Z" fill="#E6E6E6"/>
<path d="M56.5252 65.1117C59.4623 65.1117 61.8432 62.7322 61.8432 59.7969C61.8432 56.8617 59.4623 54.4822 56.5252 54.4822C53.5882 54.4822 51.2073 56.8617 51.2073 59.7969C51.2073 62.7322 53.5882 65.1117 56.5252 65.1117Z" fill="#E6E6E6"/>
<path d="M83.4447 65.1117C86.3818 65.1117 88.7627 62.7322 88.7627 59.7969C88.7627 56.8617 86.3818 54.4822 83.4447 54.4822C80.5077 54.4822 78.1268 56.8617 78.1268 59.7969C78.1268 62.7322 80.5077 65.1117 83.4447 65.1117Z" fill="#E6E6E6"/>
<path d="M110.364 65.1117C113.301 65.1117 115.682 62.7322 115.682 59.7969C115.682 56.8617 113.301 54.4822 110.364 54.4822C107.427 54.4822 105.046 56.8617 105.046 59.7969C105.046 62.7322 107.427 65.1117 110.364 65.1117Z" fill="#E6E6E6"/>
<path d="M137.284 65.1117C140.221 65.1117 142.602 62.7322 142.602 59.7969C142.602 56.8617 140.221 54.4822 137.284 54.4822C134.347 54.4822 131.966 56.8617 131.966 59.7969C131.966 62.7322 134.347 65.1117 137.284 65.1117Z" fill="#E6E6E6"/>
<path d="M164.203 65.1117C167.14 65.1117 169.521 62.7322 169.521 59.7969C169.521 56.8617 167.14 54.4822 164.203 54.4822C161.266 54.4822 158.885 56.8617 158.885 59.7969C158.885 62.7322 161.266 65.1117 164.203 65.1117Z" fill="#E6E6E6"/>
<path d="M191.123 65.1117C194.06 65.1117 196.441 62.7322 196.441 59.7969C196.441 56.8617 194.06 54.4822 191.123 54.4822C188.186 54.4822 185.805 56.8617 185.805 59.7969C185.805 62.7322 188.186 65.1117 191.123 65.1117Z" fill="#E6E6E6"/>
<path d="M218.042 65.1117C220.979 65.1117 223.36 62.7322 223.36 59.7969C223.36 56.8617 220.979 54.4822 218.042 54.4822C215.105 54.4822 212.724 56.8617 212.724 59.7969C212.724 62.7322 215.105 65.1117 218.042 65.1117Z" fill="#E6E6E6"/>
<path d="M244.962 65.1117C247.899 65.1117 250.28 62.7322 250.28 59.7969C250.28 56.8617 247.899 54.4822 244.962 54.4822C242.025 54.4822 239.644 56.8617 239.644 59.7969C239.644 62.7322 242.025 65.1117 244.962 65.1117Z" fill="#E6E6E6"/>
<path d="M271.881 65.1117C274.818 65.1117 277.199 62.7322 277.199 59.7969C277.199 56.8617 274.818 54.4822 271.881 54.4822C268.944 54.4822 266.563 56.8617 266.563 59.7969C266.563 62.7322 268.944 65.1117 271.881 65.1117Z" fill="#E6E6E6"/>
<path d="M29.6058 92.3525C32.5428 92.3525 34.9238 89.973 34.9238 87.0377C34.9238 84.1025 32.5428 81.723 29.6058 81.723C26.6688 81.723 24.2878 84.1025 24.2878 87.0377C24.2878 89.973 26.6688 92.3525 29.6058 92.3525Z" fill="#E6E6E6"/>
<path d="M56.5252 92.3525C59.4623 92.3525 61.8432 89.973 61.8432 87.0377C61.8432 84.1025 59.4623 81.723 56.5252 81.723C53.5882 81.723 51.2073 84.1025 51.2073 87.0377C51.2073 89.973 53.5882 92.3525 56.5252 92.3525Z" fill="#E6E6E6"/>
<path d="M83.4447 92.3525C86.3818 92.3525 88.7627 89.973 88.7627 87.0377C88.7627 84.1025 86.3818 81.723 83.4447 81.723C80.5077 81.723 78.1268 84.1025 78.1268 87.0377C78.1268 89.973 80.5077 92.3525 83.4447 92.3525Z" fill="#E6E6E6"/>
<path d="M110.364 92.3525C113.301 92.3525 115.682 89.973 115.682 87.0377C115.682 84.1025 113.301 81.723 110.364 81.723C107.427 81.723 105.046 84.1025 105.046 87.0377C105.046 89.973 107.427 92.3525 110.364 92.3525Z" fill="#E6E6E6"/>
<path d="M137.284 92.3525C140.221 92.3525 142.602 89.973 142.602 87.0377C142.602 84.1025 140.221 81.723 137.284 81.723C134.347 81.723 131.966 84.1025 131.966 87.0377C131.966 89.973 134.347 92.3525 137.284 92.3525Z" fill="#E6E6E6"/>
<path d="M164.203 92.3525C167.14 92.3525 169.521 89.973 169.521 87.0377C169.521 84.1025 167.14 81.723 164.203 81.723C161.266 81.723 158.885 84.1025 158.885 87.0377C158.885 89.973 161.266 92.3525 164.203 92.3525Z" fill="#E6E6E6"/>
<path d="M191.123 92.3525C194.06 92.3525 196.441 89.973 196.441 87.0377C196.441 84.1025 194.06 81.723 191.123 81.723C188.186 81.723 185.805 84.1025 185.805 87.0377C185.805 89.973 188.186 92.3525 191.123 92.3525Z" fill="#E6E6E6"/>
<path d="M218.042 92.3525C220.979 92.3525 223.36 89.973 223.36 87.0377C223.36 84.1025 220.979 81.723 218.042 81.723C215.105 81.723 212.724 84.1025 212.724 87.0377C212.724 89.973 215.105 92.3525 218.042 92.3525Z" fill="#E6E6E6"/>
<path d="M244.962 92.3525C247.899 92.3525 250.28 89.973 250.28 87.0377C250.28 84.1025 247.899 81.723 244.962 81.723C242.025 81.723 239.644 84.1025 239.644 87.0377C239.644 89.973 242.025 92.3525 244.962 92.3525Z" fill="#E6E6E6"/>
<path d="M271.881 92.3525C274.818 92.3525 277.199 89.973 277.199 87.0377C277.199 84.1025 274.818 81.723 271.881 81.723C268.944 81.723 266.563 84.1025 266.563 87.0377C266.563 89.973 268.944 92.3525 271.881 92.3525Z" fill="#E6E6E6"/>
<path d="M29.6058 119.593C32.5428 119.593 34.9238 117.214 34.9238 114.279C34.9238 111.343 32.5428 108.964 29.6058 108.964C26.6688 108.964 24.2878 111.343 24.2878 114.279C24.2878 117.214 26.6688 119.593 29.6058 119.593Z" fill="#E6E6E6"/>
<path d="M56.5252 119.593C59.4623 119.593 61.8432 117.214 61.8432 114.279C61.8432 111.343 59.4623 108.964 56.5252 108.964C53.5882 108.964 51.2073 111.343 51.2073 114.279C51.2073 117.214 53.5882 119.593 56.5252 119.593Z" fill="#13C354"/>
<path d="M83.4447 119.593C86.3818 119.593 88.7627 117.214 88.7627 114.279C88.7627 111.343 86.3818 108.964 83.4447 108.964C80.5077 108.964 78.1268 111.343 78.1268 114.279C78.1268 117.214 80.5077 119.593 83.4447 119.593Z" fill="#E6E6E6"/>
<path d="M110.364 119.593C113.301 119.593 115.682 117.214 115.682 114.279C115.682 111.343 113.301 108.964 110.364 108.964C107.427 108.964 105.046 111.343 105.046 114.279C105.046 117.214 107.427 119.593 110.364 119.593Z" fill="#E6E6E6"/>
<path d="M137.284 119.593C140.221 119.593 142.602 117.214 142.602 114.279C142.602 111.343 140.221 108.964 137.284 108.964C134.347 108.964 131.966 111.343 131.966 114.279C131.966 117.214 134.347 119.593 137.284 119.593Z" fill="#E6E6E6"/>
<path d="M164.203 119.593C167.14 119.593 169.521 117.214 169.521 114.279C169.521 111.343 167.14 108.964 164.203 108.964C161.266 108.964 158.885 111.343 158.885 114.279C158.885 117.214 161.266 119.593 164.203 119.593Z" fill="#E6E6E6"/>
<path d="M191.123 119.593C194.06 119.593 196.441 117.214 196.441 114.279C196.441 111.343 194.06 108.964 191.123 108.964C188.186 108.964 185.805 111.343 185.805 114.279C185.805 117.214 188.186 119.593 191.123 119.593Z" fill="#E6E6E6"/>
<path d="M218.042 119.593C220.979 119.593 223.36 117.214 223.36 114.279C223.36 111.343 220.979 108.964 218.042 108.964C215.105 108.964 212.724 111.343 212.724 114.279C212.724 117.214 215.105 119.593 218.042 119.593Z" fill="#E6E6E6"/>
<path d="M244.962 119.593C247.899 119.593 250.28 117.214 250.28 114.279C250.28 111.343 247.899 108.964 244.962 108.964C242.025 108.964 239.644 111.343 239.644 114.279C239.644 117.214 242.025 119.593 244.962 119.593Z" fill="#E6E6E6"/>
<path d="M271.881 119.593C274.818 119.593 277.199 117.214 277.199 114.279C277.199 111.343 274.818 108.964 271.881 108.964C268.944 108.964 266.563 111.343 266.563 114.279C266.563 117.214 268.944 119.593 271.881 119.593Z" fill="#E6E6E6"/>
<path d="M29.6058 146.834C32.5428 146.834 34.9238 144.455 34.9238 141.519C34.9238 138.584 32.5428 136.205 29.6058 136.205C26.6688 136.205 24.2878 138.584 24.2878 141.519C24.2878 144.455 26.6688 146.834 29.6058 146.834Z" fill="#E6E6E6"/>
<path d="M56.5252 146.834C59.4623 146.834 61.8432 144.455 61.8432 141.519C61.8432 138.584 59.4623 136.205 56.5252 136.205C53.5882 136.205 51.2073 138.584 51.2073 141.519C51.2073 144.455 53.5882 146.834 56.5252 146.834Z" fill="#E6E6E6"/>
<path d="M83.4447 146.834C86.3818 146.834 88.7627 144.455 88.7627 141.519C88.7627 138.584 86.3818 136.205 83.4447 136.205C80.5077 136.205 78.1268 138.584 78.1268 141.519C78.1268 144.455 80.5077 146.834 83.4447 146.834Z" fill="#E6E6E6"/>
<path d="M110.364 146.834C113.301 146.834 115.682 144.455 115.682 141.519C115.682 138.584 113.301 136.205 110.364 136.205C107.427 136.205 105.046 138.584 105.046 141.519C105.046 144.455 107.427 146.834 110.364 146.834Z" fill="#E6E6E6"/>
<path d="M137.284 146.834C140.221 146.834 142.602 144.455 142.602 141.519C142.602 138.584 140.221 136.205 137.284 136.205C134.347 136.205 131.966 138.584 131.966 141.519C131.966 144.455 134.347 146.834 137.284 146.834Z" fill="#E6E6E6"/>
<path d="M164.203 146.834C167.14 146.834 169.521 144.455 169.521 141.519C169.521 138.584 167.14 136.205 164.203 136.205C161.266 136.205 158.885 138.584 158.885 141.519C158.885 144.455 161.266 146.834 164.203 146.834Z" fill="#E6E6E6"/>
<path d="M191.123 146.834C194.06 146.834 196.441 144.455 196.441 141.519C196.441 138.584 194.06 136.205 191.123 136.205C188.186 136.205 185.805 138.584 185.805 141.519C185.805 144.455 188.186 146.834 191.123 146.834Z" fill="#E6E6E6"/>
<path d="M218.042 146.834C220.979 146.834 223.36 144.455 223.36 141.519C223.36 138.584 220.979 136.205 218.042 136.205C215.105 136.205 212.724 138.584 212.724 141.519C212.724 144.455 215.105 146.834 218.042 146.834Z" fill="#E6E6E6"/>
<path d="M244.962 146.834C247.899 146.834 250.28 144.455 250.28 141.519C250.28 138.584 247.899 136.205 244.962 136.205C242.025 136.205 239.644 138.584 239.644 141.519C239.644 144.455 242.025 146.834 244.962 146.834Z" fill="#E6E6E6"/>
<path d="M271.881 146.834C274.818 146.834 277.199 144.455 277.199 141.519C277.199 138.584 274.818 136.205 271.881 136.205C268.944 136.205 266.563 138.584 266.563 141.519C266.563 144.455 268.944 146.834 271.881 146.834Z" fill="#E6E6E6"/>
<path d="M29.6058 174.075C32.5428 174.075 34.9238 171.695 34.9238 168.76C34.9238 165.825 32.5428 163.445 29.6058 163.445C26.6688 163.445 24.2878 165.825 24.2878 168.76C24.2878 171.695 26.6688 174.075 29.6058 174.075Z" fill="#E6E6E6"/>
<path d="M56.5252 174.075C59.4623 174.075 61.8432 171.695 61.8432 168.76C61.8432 165.825 59.4623 163.445 56.5252 163.445C53.5882 163.445 51.2073 165.825 51.2073 168.76C51.2073 171.695 53.5882 174.075 56.5252 174.075Z" fill="#E6E6E6"/>
<path d="M83.4447 174.075C86.3818 174.075 88.7627 171.695 88.7627 168.76C88.7627 165.825 86.3818 163.445 83.4447 163.445C80.5077 163.445 78.1268 165.825 78.1268 168.76C78.1268 171.695 80.5077 174.075 83.4447 174.075Z" fill="#13C354"/>
<path d="M110.364 174.075C113.301 174.075 115.682 171.695 115.682 168.76C115.682 165.825 113.301 163.445 110.364 163.445C107.427 163.445 105.046 165.825 105.046 168.76C105.046 171.695 107.427 174.075 110.364 174.075Z" fill="#E6E6E6"/>
<path d="M137.284 174.075C140.221 174.075 142.602 171.695 142.602 168.76C142.602 165.825 140.221 163.445 137.284 163.445C134.347 163.445 131.966 165.825 131.966 168.76C131.966 171.695 134.347 174.075 137.284 174.075Z" fill="#E6E6E6"/>
<path d="M164.203 174.075C167.14 174.075 169.521 171.695 169.521 168.76C169.521 165.825 167.14 163.445 164.203 163.445C161.266 163.445 158.885 165.825 158.885 168.76C158.885 171.695 161.266 174.075 164.203 174.075Z" fill="#E6E6E6"/>
<path d="M191.123 174.075C194.06 174.075 196.441 171.695 196.441 168.76C196.441 165.825 194.06 163.445 191.123 163.445C188.186 163.445 185.805 165.825 185.805 168.76C185.805 171.695 188.186 174.075 191.123 174.075Z" fill="#E6E6E6"/>
<path d="M218.042 174.075C220.979 174.075 223.36 171.695 223.36 168.76C223.36 165.825 220.979 163.445 218.042 163.445C215.105 163.445 212.724 165.825 212.724 168.76C212.724 171.695 215.105 174.075 218.042 174.075Z" fill="#E6E6E6"/>
<path d="M244.962 174.075C247.899 174.075 250.28 171.695 250.28 168.76C250.28 165.825 247.899 163.445 244.962 163.445C242.025 163.445 239.644 165.825 239.644 168.76C239.644 171.695 242.025 174.075 244.962 174.075Z" fill="#E6E6E6"/>
<path d="M271.881 174.075C274.818 174.075 277.199 171.695 277.199 168.76C277.199 165.825 274.818 163.445 271.881 163.445C268.944 163.445 266.563 165.825 266.563 168.76C266.563 171.695 268.944 174.075 271.881 174.075Z" fill="#E6E6E6"/>
<path d="M29.6058 201.316C32.5428 201.316 34.9238 198.936 34.9238 196.001C34.9238 193.066 32.5428 190.686 29.6058 190.686C26.6688 190.686 24.2878 193.066 24.2878 196.001C24.2878 198.936 26.6688 201.316 29.6058 201.316Z" fill="#E6E6E6"/>
<path d="M56.5252 201.316C59.4623 201.316 61.8432 198.936 61.8432 196.001C61.8432 193.066 59.4623 190.686 56.5252 190.686C53.5882 190.686 51.2073 193.066 51.2073 196.001C51.2073 198.936 53.5882 201.316 56.5252 201.316Z" fill="#E6E6E6"/>
<path d="M83.4447 201.316C86.3818 201.316 88.7627 198.936 88.7627 196.001C88.7627 193.066 86.3818 190.686 83.4447 190.686C80.5077 190.686 78.1268 193.066 78.1268 196.001C78.1268 198.936 80.5077 201.316 83.4447 201.316Z" fill="#E6E6E6"/>
<path d="M110.364 201.316C113.301 201.316 115.682 198.936 115.682 196.001C115.682 193.066 113.301 190.686 110.364 190.686C107.427 190.686 105.046 193.066 105.046 196.001C105.046 198.936 107.427 201.316 110.364 201.316Z" fill="#E6E6E6"/>
<path d="M137.284 201.316C140.221 201.316 142.602 198.936 142.602 196.001C142.602 193.066 140.221 190.686 137.284 190.686C134.347 190.686 131.966 193.066 131.966 196.001C131.966 198.936 134.347 201.316 137.284 201.316Z" fill="#E6E6E6"/>
<path d="M164.203 201.316C167.14 201.316 169.521 198.936 169.521 196.001C169.521 193.066 167.14 190.686 164.203 190.686C161.266 190.686 158.885 193.066 158.885 196.001C158.885 198.936 161.266 201.316 164.203 201.316Z" fill="#E6E6E6"/>
<path d="M191.123 201.316C194.06 201.316 196.441 198.936 196.441 196.001C196.441 193.066 194.06 190.686 191.123 190.686C188.186 190.686 185.805 193.066 185.805 196.001C185.805 198.936 188.186 201.316 191.123 201.316Z" fill="#E6E6E6"/>
<path d="M218.042 201.316C220.979 201.316 223.36 198.936 223.36 196.001C223.36 193.066 220.979 190.686 218.042 190.686C215.105 190.686 212.724 193.066 212.724 196.001C212.724 198.936 215.105 201.316 218.042 201.316Z" fill="#E6E6E6"/>
<path d="M244.962 201.316C247.899 201.316 250.28 198.936 250.28 196.001C250.28 193.066 247.899 190.686 244.962 190.686C242.025 190.686 239.644 193.066 239.644 196.001C239.644 198.936 242.025 201.316 244.962 201.316Z" fill="#E6E6E6"/>
<path d="M271.881 201.316C274.818 201.316 277.199 198.936 277.199 196.001C277.199 193.066 274.818 190.686 271.881 190.686C268.944 190.686 266.563 193.066 266.563 196.001C266.563 198.936 268.944 201.316 271.881 201.316Z" fill="#E6E6E6"/>
<path d="M29.6058 228.557C32.5428 228.557 34.9238 226.177 34.9238 223.242C34.9238 220.307 32.5428 217.927 29.6058 217.927C26.6688 217.927 24.2878 220.307 24.2878 223.242C24.2878 226.177 26.6688 228.557 29.6058 228.557Z" fill="#E6E6E6"/>
<path d="M56.5252 228.557C59.4623 228.557 61.8432 226.177 61.8432 223.242C61.8432 220.307 59.4623 217.927 56.5252 217.927C53.5882 217.927 51.2073 220.307 51.2073 223.242C51.2073 226.177 53.5882 228.557 56.5252 228.557Z" fill="#E6E6E6"/>
<path d="M83.4447 228.557C86.3818 228.557 88.7627 226.177 88.7627 223.242C88.7627 220.307 86.3818 217.927 83.4447 217.927C80.5077 217.927 78.1268 220.307 78.1268 223.242C78.1268 226.177 80.5077 228.557 83.4447 228.557Z" fill="#E6E6E6"/>
<path d="M110.364 228.557C113.301 228.557 115.682 226.177 115.682 223.242C115.682 220.307 113.301 217.927 110.364 217.927C107.427 217.927 105.046 220.307 105.046 223.242C105.046 226.177 107.427 228.557 110.364 228.557Z" fill="#E6E6E6"/>
<path d="M137.284 228.557C140.221 228.557 142.602 226.177 142.602 223.242C142.602 220.307 140.221 217.927 137.284 217.927C134.347 217.927 131.966 220.307 131.966 223.242C131.966 226.177 134.347 228.557 137.284 228.557Z" fill="#E6E6E6"/>
<path d="M164.203 228.557C167.14 228.557 169.521 226.177 169.521 223.242C169.521 220.307 167.14 217.927 164.203 217.927C161.266 217.927 158.885 220.307 158.885 223.242C158.885 226.177 161.266 228.557 164.203 228.557Z" fill="#E6E6E6"/>
<path d="M191.123 228.557C194.06 228.557 196.441 226.177 196.441 223.242C196.441 220.307 194.06 217.927 191.123 217.927C188.186 217.927 185.805 220.307 185.805 223.242C185.805 226.177 188.186 228.557 191.123 228.557Z" fill="#E6E6E6"/>
<path d="M218.042 228.557C220.979 228.557 223.36 226.177 223.36 223.242C223.36 220.307 220.979 217.927 218.042 217.927C215.105 217.927 212.724 220.307 212.724 223.242C212.724 226.177 215.105 228.557 218.042 228.557Z" fill="#E6E6E6"/>
<path d="M244.962 228.557C247.899 228.557 250.28 226.177 250.28 223.242C250.28 220.307 247.899 217.927 244.962 217.927C242.025 217.927 239.644 220.307 239.644 223.242C239.644 226.177 242.025 228.557 244.962 228.557Z" fill="#E6E6E6"/>
<path d="M271.881 228.557C274.818 228.557 277.199 226.177 277.199 223.242C277.199 220.307 274.818 217.927 271.881 217.927C268.944 217.927 266.563 220.307 266.563 223.242C266.563 226.177 268.944 228.557 271.881 228.557Z" fill="#E6E6E6"/>
<path d="M29.6058 255.797C32.5428 255.797 34.9238 253.418 34.9238 250.483C34.9238 247.547 32.5428 245.168 29.6058 245.168C26.6688 245.168 24.2878 247.547 24.2878 250.483C24.2878 253.418 26.6688 255.797 29.6058 255.797Z" fill="#E6E6E6"/>
<path d="M56.5252 255.797C59.4623 255.797 61.8432 253.418 61.8432 250.483C61.8432 247.547 59.4623 245.168 56.5252 245.168C53.5882 245.168 51.2073 247.547 51.2073 250.483C51.2073 253.418 53.5882 255.797 56.5252 255.797Z" fill="#E6E6E6"/>
<path d="M83.4447 255.797C86.3818 255.797 88.7627 253.418 88.7627 250.483C88.7627 247.547 86.3818 245.168 83.4447 245.168C80.5077 245.168 78.1268 247.547 78.1268 250.483C78.1268 253.418 80.5077 255.797 83.4447 255.797Z" fill="#E6E6E6"/>
<path d="M110.364 255.797C113.301 255.797 115.682 253.418 115.682 250.483C115.682 247.547 113.301 245.168 110.364 245.168C107.427 245.168 105.046 247.547 105.046 250.483C105.046 253.418 107.427 255.797 110.364 255.797Z" fill="#E6E6E6"/>
<path d="M137.284 255.797C140.221 255.797 142.602 253.418 142.602 250.483C142.602 247.547 140.221 245.168 137.284 245.168C134.347 245.168 131.966 247.547 131.966 250.483C131.966 253.418 134.347 255.797 137.284 255.797Z" fill="#E6E6E6"/>
<path d="M164.203 255.797C167.14 255.797 169.521 253.418 169.521 250.483C169.521 247.547 167.14 245.168 164.203 245.168C161.266 245.168 158.885 247.547 158.885 250.483C158.885 253.418 161.266 255.797 164.203 255.797Z" fill="#E6E6E6"/>
<path d="M191.123 255.797C194.06 255.797 196.441 253.418 196.441 250.483C196.441 247.547 194.06 245.168 191.123 245.168C188.186 245.168 185.805 247.547 185.805 250.483C185.805 253.418 188.186 255.797 191.123 255.797Z" fill="#E6E6E6"/>
<path d="M218.042 255.797C220.979 255.797 223.36 253.418 223.36 250.483C223.36 247.547 220.979 245.168 218.042 245.168C215.105 245.168 212.724 247.547 212.724 250.483C212.724 253.418 215.105 255.797 218.042 255.797Z" fill="#E6E6E6"/>
<path d="M244.962 255.797C247.899 255.797 250.28 253.418 250.28 250.483C250.28 247.547 247.899 245.168 244.962 245.168C242.025 245.168 239.644 247.547 239.644 250.483C239.644 253.418 242.025 255.797 244.962 255.797Z" fill="#E6E6E6"/>
<path d="M271.881 255.797C274.818 255.797 277.199 253.418 277.199 250.483C277.199 247.547 274.818 245.168 271.881 245.168C268.944 245.168 266.563 247.547 266.563 250.483C266.563 253.418 268.944 255.797 271.881 255.797Z" fill="#E6E6E6"/>
<path d="M221.054 210.906L284.169 100.377H157.87L94.6879 209.746L157.87 319.116H284.236L347.301 209.95L221.054 210.906Z" fill="#2C3E33"/>
<path d="M362.976 200.667L363.094 200.462L299.912 91.0929H299.844L236.729 201.623L362.976 200.667Z" fill="#13C354"/>
<path d="M454.383 95.581C453.353 94.379 452.838 92.6191 452.838 90.3014C452.838 88.0055 453.353 86.2562 454.383 85.0537C454.913 84.4504 455.573 83.9748 456.313 83.6625C457.054 83.3503 457.855 83.2094 458.658 83.2505C459.468 83.2083 460.277 83.3484 461.025 83.6605C461.774 83.9726 462.443 84.4487 462.982 85.0537C464.022 86.256 464.542 88.0053 464.543 90.3014C464.543 92.6194 464.022 94.3792 462.982 95.581C462.443 96.1861 461.774 96.6624 461.025 96.9745C460.277 97.2867 459.468 97.4268 458.658 97.3846C457.855 97.4256 457.054 97.2848 456.313 96.9724C455.573 96.6601 454.913 96.1844 454.383 95.581ZM460.512 93.7129C460.976 92.6385 461.176 91.4689 461.097 90.3014C461.173 89.148 460.966 87.9935 460.495 86.9383C460.32 86.6062 460.055 86.3305 459.73 86.1436C459.404 85.9566 459.032 85.866 458.658 85.8824C458.29 85.868 457.925 85.96 457.608 86.1472C457.291 86.3345 457.035 86.6091 456.87 86.9383C456.41 87.9969 456.21 89.1497 456.284 90.3014C456.208 91.4635 456.409 92.6271 456.87 93.6965C457.035 94.0258 457.291 94.3005 457.608 94.4879C457.925 94.6752 458.29 94.7671 458.658 94.7527C459.034 94.7742 459.408 94.6877 459.737 94.5035C460.065 94.3193 460.334 94.0449 460.512 93.7129ZM458.431 106.71L471.825 83.5754H475.434L462.007 106.71H458.431ZM470.866 105.134C469.836 103.931 469.321 102.161 469.322 99.8213C469.322 97.5257 469.837 95.7819 470.866 94.59C471.432 94.0237 472.103 93.5743 472.842 93.2677C473.581 92.9611 474.374 92.8032 475.174 92.8032C475.974 92.8032 476.767 92.9611 477.506 93.2677C478.245 93.5743 478.917 94.0237 479.482 94.59C480.511 95.7816 481.026 97.5362 481.026 99.8539C481.026 102.172 480.511 103.932 479.482 105.134C478.919 105.705 478.249 106.158 477.509 106.468C476.77 106.778 475.976 106.937 475.174 106.937C474.372 106.937 473.578 106.778 472.839 106.468C472.099 106.158 471.429 105.705 470.866 105.134ZM476.994 103.249C477.455 102.18 477.656 101.016 477.58 99.8539C477.656 98.7007 477.449 97.5463 476.978 96.491C476.797 96.1704 476.533 95.9037 476.215 95.7182C475.896 95.5326 475.534 95.4348 475.166 95.4348C474.797 95.4348 474.435 95.5326 474.117 95.7182C473.798 95.9037 473.535 96.1704 473.353 96.491C472.894 97.5497 472.693 98.7024 472.768 99.8539C472.692 101.016 472.892 102.18 473.353 103.249C473.536 103.57 473.801 103.837 474.121 104.022C474.441 104.207 474.804 104.305 475.174 104.305C475.543 104.305 475.906 104.207 476.226 104.022C476.546 103.837 476.811 103.57 476.994 103.249Z" fill="#2C3E33"/>
<path d="M1.54439 295.139C0.514794 293.937 0 292.177 0 289.86C0 287.564 0.514794 285.815 1.54439 284.612C2.07473 284.009 2.73475 283.533 3.47505 283.221C4.21535 282.909 5.01674 282.768 5.81922 282.809C6.62918 282.767 7.4383 282.907 8.18683 283.219C8.93536 283.531 9.60419 284.007 10.144 284.612C11.1838 285.814 11.7038 287.564 11.7042 289.86C11.7042 292.178 11.1841 293.938 10.144 295.139C9.60425 295.745 8.93543 296.221 8.18689 296.533C7.43835 296.845 6.62921 296.985 5.81922 296.943C5.01671 296.984 4.21529 296.843 3.47499 296.531C2.73468 296.218 2.07467 295.743 1.54439 295.139ZM7.67317 293.271C8.13716 292.197 8.33775 291.027 8.25828 289.86C8.33466 288.706 8.12797 287.552 7.65617 286.497C7.48181 286.165 7.21649 285.889 6.8912 285.702C6.56592 285.515 6.19412 285.424 5.81923 285.441C5.45123 285.426 5.0869 285.518 4.76985 285.706C4.45281 285.893 4.1965 286.168 4.03162 286.497C3.57192 287.555 3.37116 288.708 3.44596 289.86C3.36944 291.022 3.57016 292.185 4.03162 293.255C4.19634 293.584 4.4526 293.859 4.76968 294.046C5.08675 294.234 5.45118 294.326 5.81923 294.311C6.19531 294.333 6.5697 294.246 6.89821 294.062C7.22671 293.878 7.49562 293.603 7.67317 293.271ZM5.59245 306.268L18.9868 283.134H22.5954L9.16823 306.268H5.59245ZM18.028 304.692C16.9979 303.49 16.4831 301.719 16.4836 299.38C16.4836 297.084 16.9984 295.34 18.028 294.148C18.5931 293.582 19.2645 293.133 20.0037 292.826C20.7429 292.519 21.5354 292.362 22.3358 292.362C23.1361 292.362 23.9286 292.519 24.6678 292.826C25.407 293.133 26.0784 293.582 26.6435 294.148C27.6725 295.34 28.1873 297.095 28.1879 299.412C28.1879 301.73 27.6731 303.49 26.6435 304.692C26.081 305.263 25.4105 305.717 24.6709 306.026C23.9314 306.336 23.1376 306.495 22.3358 306.495C21.5339 306.495 20.7401 306.336 20.0006 306.026C19.261 305.717 18.5905 305.263 18.028 304.692ZM24.1557 302.808C24.6171 301.738 24.8178 300.574 24.7413 299.412C24.8176 298.259 24.6111 297.105 24.1398 296.049C23.9582 295.729 23.6948 295.462 23.3763 295.277C23.0579 295.091 22.6959 294.993 22.3272 294.993C21.9586 294.993 21.5966 295.091 21.2782 295.277C20.9597 295.462 20.6963 295.729 20.5147 296.049C20.0555 297.108 19.8549 298.261 19.9296 299.412C19.8533 300.574 20.0538 301.738 20.5147 302.808C20.6981 303.128 20.963 303.395 21.2828 303.58C21.6025 303.766 21.9655 303.864 22.3352 303.864C22.7048 303.864 23.0679 303.766 23.3876 303.58C23.7073 303.395 23.9723 303.128 24.1557 302.808Z" fill="#2C3E33"/>
<path d="M303.098 161.953L302.281 161.736L320.119 94.6711H423.59V95.5165H320.769L303.098 161.953Z" fill="#0E1612"/>
<path d="M432.045 103.966C430.289 103.966 428.573 103.445 427.113 102.47C425.653 101.496 424.515 100.11 423.843 98.4889C423.171 96.8678 422.995 95.0839 423.338 93.3629C423.681 91.6419 424.526 90.0611 425.768 88.8203C427.009 87.5796 428.591 86.7346 430.313 86.3923C432.035 86.05 433.82 86.2256 435.442 86.8971C437.064 87.5686 438.451 88.7058 439.426 90.1648C440.401 91.6237 440.922 93.339 440.922 95.0937C440.919 97.4459 439.983 99.701 438.319 101.364C436.655 103.027 434.398 103.963 432.045 103.966ZM432.045 87.0668C430.456 87.0668 428.903 87.5375 427.582 88.4196C426.262 89.3016 425.232 90.5552 424.624 92.0219C424.016 93.4887 423.857 95.1027 424.167 96.6597C424.477 98.2168 425.242 99.6471 426.365 100.77C427.489 101.892 428.92 102.657 430.478 102.966C432.036 103.276 433.651 103.117 435.118 102.51C436.586 101.902 437.84 100.873 438.723 99.5533C439.606 98.2333 440.077 96.6813 440.077 95.0938C440.074 92.9656 439.227 90.9253 437.721 89.4205C436.216 87.9157 434.174 87.0692 432.045 87.0668Z" fill="#0E1612"/>
<path d="M432.045 98.4735C433.912 98.4735 435.427 96.9604 435.427 95.0937C435.427 93.2271 433.912 91.714 432.045 91.714C430.177 91.714 428.663 93.2271 428.663 95.0937C428.663 96.9604 430.177 98.4735 432.045 98.4735Z" fill="#13C354"/>
<path d="M172.466 227.793L173.283 228.01L155.444 295.074H51.9738V294.23H154.794L172.466 227.793Z" fill="#0E1612"/>
<path d="M43.5191 285.78C45.2748 285.78 46.9912 286.301 48.451 287.275C49.9109 288.25 51.0487 289.636 51.7206 291.257C52.3925 292.878 52.5683 294.662 52.2258 296.383C51.8833 298.104 51.0378 299.685 49.7963 300.926C48.5547 302.166 46.973 303.011 45.2509 303.354C43.5289 303.696 41.744 303.52 40.1218 302.849C38.4997 302.177 37.1133 301.04 36.1378 299.581C35.1624 298.122 34.6417 296.407 34.6417 294.652C34.6444 292.3 35.5805 290.045 37.2448 288.382C38.909 286.718 41.1655 285.783 43.5191 285.78ZM43.5191 302.679C45.1076 302.679 46.6605 302.208 47.9813 301.326C49.3021 300.444 50.3316 299.191 50.9395 297.724C51.5474 296.257 51.7065 294.643 51.3966 293.086C51.0867 291.529 50.3217 290.099 49.1984 288.976C48.0752 287.854 46.644 287.089 45.086 286.779C43.528 286.47 41.913 286.629 40.4454 287.236C38.9778 287.844 37.7234 288.873 36.8408 290.193C35.9583 291.513 35.4872 293.065 35.4872 294.652C35.4896 296.78 36.3366 298.821 37.8423 300.325C39.3481 301.83 41.3896 302.677 43.5191 302.679Z" fill="#0E1612"/>
<path d="M43.519 298.032C45.3868 298.032 46.9009 296.519 46.9009 294.652C46.9009 292.786 45.3868 291.272 43.519 291.272C41.6513 291.272 40.1372 292.786 40.1372 294.652C40.1372 296.519 41.6513 298.032 43.519 298.032Z" fill="#13C354"/>
<path d="M509.04 428.413H496.203V445.86H509.04V428.413Z" fill="#A0616A"/>
<path d="M574.249 428.413H561.412V445.86H574.249V428.413Z" fill="#A0616A"/>
<path d="M583.154 283.706C582.054 283.706 580.967 283.468 579.967 283.008C578.968 282.548 578.08 281.878 577.365 281.042C576.65 280.207 576.125 279.226 575.825 278.168C575.525 277.11 575.458 276 575.629 274.914L577.731 261.52L578.356 257.536H588.112L588.625 263.181L590.657 274.782C590.848 275.876 590.798 276.999 590.509 278.071C590.221 279.144 589.701 280.14 588.986 280.991C588.271 281.841 587.378 282.525 586.371 282.994C585.363 283.463 584.265 283.706 583.154 283.706Z" fill="#A0616A"/>
<path d="M487.651 282.167C486.551 282.167 485.464 281.929 484.465 281.469C483.465 281.009 482.578 280.338 481.862 279.503C481.147 278.667 480.622 277.687 480.322 276.629C480.022 275.571 479.955 274.461 480.126 273.375L482.228 259.98L482.853 255.996H492.609L493.123 261.641L495.154 273.242C495.346 274.336 495.295 275.459 495.007 276.532C494.718 277.604 494.198 278.601 493.483 279.451C492.768 280.302 491.875 280.986 490.868 281.455C489.86 281.924 488.762 282.167 487.651 282.167Z" fill="#A0616A"/>
<path d="M575.789 432.005L560.386 431.492L535.226 279.601L510.066 432.005L495.177 431.492L491.069 255.996H577.33L575.789 432.005Z" fill="#0E1612"/>
<path d="M508.718 457.973C495.649 458.35 485.419 454.819 478.711 446.438C478.006 445.555 477.588 444.478 477.513 443.351C477.438 442.224 477.71 441.101 478.292 440.133C478.84 439.219 479.641 438.483 480.597 438.013C481.554 437.543 482.626 437.359 483.685 437.483L487.932 437.979L496.775 433.563C494.966 444.076 499.886 444.274 511.657 440.75L513.778 451.611C513.927 452.37 513.91 453.152 513.727 453.902C513.544 454.653 513.2 455.356 512.719 455.961C512.238 456.566 511.631 457.059 510.94 457.406C510.249 457.754 509.491 457.947 508.718 457.973Z" fill="#0E1612"/>
<path d="M573.927 457.973C560.858 458.351 550.628 454.82 543.92 446.438C543.215 445.555 542.797 444.478 542.722 443.351C542.647 442.224 542.919 441.101 543.501 440.133C544.049 439.219 544.85 438.483 545.806 438.013C546.763 437.543 547.835 437.359 548.894 437.483L553.141 437.979L561.917 434.278C560.108 444.792 565.095 444.274 576.866 440.75L578.987 451.611C579.136 452.37 579.119 453.152 578.936 453.903C578.753 454.654 578.409 455.356 577.928 455.961C577.447 456.566 576.84 457.059 576.149 457.407C575.458 457.754 574.7 457.947 573.927 457.973Z" fill="#0E1612"/>
<path d="M530.091 95.3823C541.434 95.3823 550.63 86.1926 550.63 74.8565C550.63 63.5204 541.434 54.3307 530.091 54.3307C518.749 54.3307 509.553 63.5204 509.553 74.8565C509.553 86.1926 518.749 95.3823 530.091 95.3823Z" fill="#A0616A"/>
<path d="M550.63 112.316L528.551 113.342L527.524 90.2509L546.522 83.0671L550.63 112.316Z" fill="#A0616A"/>
<path d="M582.464 263.18C552.356 257.487 518.054 255.447 495.177 263.18L502.365 112.316L526.497 105.132L528.294 102.31L548.576 98.9743L558.332 102.053L564.493 111.29L591.193 126.171C578.05 176.98 574.157 223.144 582.464 263.18Z" fill="#0E1612"/>
<path d="M596.841 262.154L574.762 259.588C579.364 237.18 577.482 208.032 578.613 178.768C579.33 160.208 583.182 143.317 584.518 122.579C592.891 124.761 597.226 132.532 597.276 141.689C597.513 185.122 601.618 225.819 596.841 262.154Z" fill="#0E1612"/>
<path d="M500.824 260.102L479.259 258.562L492.096 185.696L496.441 125.059C495.765 116.217 500.494 111.078 507.499 110.777C522.801 128.886 524.575 153.843 519.822 182.104L500.824 260.102Z" fill="#0E1612"/>
<path d="M536.753 89.9481L534.104 82.4127C532.618 78.1848 530.01 74.4402 526.558 71.5796C523.107 68.719 518.942 66.85 514.509 66.1727L497.91 65.7923L502.519 58.3904C504.741 54.8209 507.92 51.9448 511.694 50.0881C515.469 48.2314 519.688 47.4684 523.874 47.8854L540.463 49.538C544.413 49.9315 548.046 51.8704 550.57 54.9315C553.094 57.9926 554.304 61.9273 553.935 65.8767L552.414 82.182C552.251 83.925 551.645 85.5976 550.654 87.0408C549.663 88.4841 548.319 89.6501 546.749 90.4282C545.18 91.2063 543.438 91.5706 541.689 91.4866C539.939 91.4026 538.24 90.873 536.753 89.9481Z" fill="#0E1612"/>
</svg>
