<svg width="134" height="83" viewBox="0 0 134 83" fill="none" xmlns="http://www.w3.org/2000/svg">
<path d="M67.1977 22.7773C68.9527 25.1601 70.2458 27.7219 71.0771 30.4628C71.9174 33.1703 72.3339 35.9505 72.3265 38.8034C72.3403 41.6442 71.9425 44.4802 71.133 47.3115C70.3448 50.1306 69.2042 52.8265 67.7113 55.3992C66.2396 57.9598 64.4337 60.3303 62.2938 62.5108C60.1751 64.6791 57.7756 66.5283 55.0951 68.0583C53.3294 69.0662 51.3831 69.881 49.256 70.5029C47.1624 71.1339 44.9094 71.3622 42.4971 71.1879C40.7161 72.5148 38.9441 74.0058 37.1811 75.6608C35.4395 77.3037 33.7083 79.138 31.9877 81.1637C30.6358 74.3483 28.857 67.7484 26.6511 61.364C24.4544 54.9462 21.6894 48.7681 18.3562 42.8299C17.8059 43.5952 17.2754 44.4199 16.7645 45.3038C16.2415 46.1664 15.7596 47.0761 15.3186 48.033C15.0879 47.4313 14.8375 46.8691 14.5674 46.3464C14.3064 45.7903 14.024 45.2463 13.7205 44.7145C12.239 42.1191 10.4596 39.8912 8.38233 38.0309C6.31416 36.1371 3.9572 34.5774 1.31146 33.3517C1.95285 32.6471 2.75531 31.8788 3.71882 31.0468C4.68233 30.2148 5.7218 29.3676 6.83724 28.5052C7.97395 27.6308 9.14408 26.7654 10.3476 25.9092C11.5724 25.0408 12.7669 24.218 13.9309 23.4407C15.0949 22.6635 16.1966 21.95 17.236 21.3003C18.2753 20.6506 19.1779 20.1072 19.9438 19.67C23.0922 17.8728 26.2117 16.4448 29.3021 15.3859C32.3803 14.3057 35.3627 13.5764 38.2492 13.1979C41.1236 12.7982 43.858 12.7463 46.4525 13.0422C49.0562 13.3047 51.4577 13.8801 53.6569 14.7683C55.8441 15.6352 57.8062 16.7997 59.5434 18.2619C61.2806 19.7241 62.72 21.4551 63.8614 23.4548C64.0436 23.7739 64.2318 24.1036 64.4261 24.444C64.6082 24.7631 64.7691 25.0944 64.9087 25.4377C65.3434 24.964 65.7522 24.5191 66.1353 24.103C66.5061 23.6657 66.8603 23.2238 67.1977 22.7773ZM54.1084 33.718C52.9392 32.6085 51.6742 31.7512 50.3134 31.1459C48.9738 30.5285 47.59 30.1056 46.1622 29.877C44.7556 29.6364 43.3367 29.5719 41.9057 29.6836C40.4959 29.7833 39.1134 29.9801 37.7582 30.2742C36.4243 30.5561 35.1556 30.9277 33.9523 31.389C32.7368 31.829 31.6261 32.2796 30.6202 32.741C33.4676 38.0258 36.3607 43.2423 39.2993 48.3905C41.9951 53.1131 44.7425 57.7781 47.5416 62.3854C49.2743 60.5785 50.7351 58.6164 51.924 56.4993C53.1342 54.3701 53.9343 52.1647 54.3243 49.8831C54.7233 47.5682 54.6591 45.2074 54.1316 42.8009C53.604 40.3943 52.5023 38.0194 50.8262 35.6762C51.3155 35.3969 51.8367 35.0994 52.3898 34.7837C52.9429 34.4679 53.5158 34.1127 54.1084 33.718Z" fill="#4F4F4F"/>
<path d="M112.882 13.9012C111.282 18.5095 109.744 23.1528 108.269 27.831C106.814 32.4971 105.452 37.2513 104.183 42.0937C108.5 43.3809 112.821 44.5526 117.147 45.6089C121.494 46.653 125.886 47.6015 130.321 48.4542C126.896 50.4093 123.893 52.4617 121.313 54.6116C118.754 56.7493 116.439 59.0437 114.369 61.4946C112.115 60.4119 109.864 59.3839 107.616 58.4107C105.378 57.404 103.143 56.4793 100.914 55.6367C100.357 58.07 99.8389 60.5232 99.3608 62.9961C98.9039 65.4569 98.4485 67.945 97.9946 70.4604C96.3658 71.1646 94.8691 71.8779 93.5046 72.6003C92.1614 73.3107 90.8622 74.024 89.6071 74.7405C88.0116 75.6512 86.3507 76.6698 84.6245 77.7962C82.8982 78.9226 81.1233 80.1613 79.2997 81.5125C81.0612 76.4455 82.7103 71.4286 84.2469 66.4618C85.7714 61.4737 87.1348 56.4506 88.3373 51.3925C83.6742 49.9927 79.0171 48.8011 74.366 47.8176C69.7028 46.8128 65.0137 45.9356 60.2987 45.186C63.4958 43.2764 66.5304 41.2057 69.4026 38.974C72.2961 36.73 74.9678 34.246 77.4179 31.5218C79.687 32.6804 81.9636 33.7783 84.2479 34.8154C86.52 35.8312 88.8211 36.7742 91.151 37.6442C91.5683 35.4599 91.9369 33.2892 92.2569 31.1322C92.5648 28.9539 92.8165 26.7513 93.012 24.5244C95.0783 23.7961 97.049 23.0238 98.9239 22.2074C100.787 21.3697 102.548 20.4773 104.207 19.5301C105.547 18.7651 106.917 17.9272 108.315 17.0164C109.734 16.0934 111.256 15.055 112.882 13.9012Z" fill="#4F4F4F"/>
</svg>
