<svg width="209" height="47" viewBox="0 0 209 47" fill="none" xmlns="http://www.w3.org/2000/svg">
<path d="M50.4648 15.7395V25.9445H57.7285C58.724 25.9445 59.6604 25.8141 60.5378 25.5534C61.4152 25.2808 62.1829 24.9134 62.8409 24.4511C63.4989 23.9889 64.0136 23.4496 64.3848 22.8332C64.7728 22.2051 64.9669 21.5413 64.9669 20.842C64.9669 20.1427 64.7728 19.4849 64.3848 18.8686C64.0136 18.2404 63.4989 17.6952 62.8409 17.2329C62.1829 16.7707 61.4152 16.4092 60.5378 16.1484C59.6604 15.8758 58.724 15.7395 57.7285 15.7395H50.4648ZM50.4648 36.1317H43.2012V10.637H57.7285C59.0614 10.637 60.3438 10.7615 61.5755 11.0104C62.8072 11.2474 63.9545 11.5912 65.0175 12.0416C66.0973 12.4801 67.0759 13.0135 67.9533 13.6416C68.8476 14.258 69.6068 14.9454 70.2311 15.704C70.8723 16.4625 71.3616 17.2744 71.699 18.1397C72.0534 19.0049 72.2305 19.9057 72.2305 20.842C72.2305 21.7191 72.0702 22.5725 71.7497 23.4022C71.446 24.2318 70.9988 25.02 70.4083 25.7667C69.8346 26.5134 69.126 27.2009 68.2823 27.8291C67.4387 28.4572 66.4938 29.0025 65.4477 29.4647L69.4719 36.1317H61.7526L58.589 30.9937L50.4648 31.0292V36.1317Z" fill="#444444"/>
<path d="M98.3747 25.9445V20.842C98.3747 20.1427 98.1806 19.4849 97.7926 18.8686C97.4214 18.2404 96.9067 17.6952 96.2487 17.2329C95.5907 16.7707 94.8145 16.4092 93.9203 16.1484C93.0429 15.8758 92.1065 15.7395 91.111 15.7395C90.1155 15.7395 89.1707 15.8758 88.2764 16.1484C87.399 16.4092 86.6313 16.7707 85.9733 17.2329C85.3153 17.6952 84.7922 18.2404 84.4041 18.8686C84.0329 19.4849 83.8473 20.1427 83.8473 20.842V25.9445H98.3747ZM105.638 36.1317H98.3747V31.0292H83.8473V36.1317H76.609V20.842C76.609 19.4316 76.9886 18.11 77.7479 16.8774C78.5071 15.6329 79.5364 14.5484 80.8356 13.6239C82.1516 12.6994 83.687 11.9704 85.4418 11.4371C87.2134 10.9037 89.1032 10.637 91.111 10.637C93.1188 10.637 95.0001 10.9037 96.7549 11.4371C98.5265 11.9704 100.07 12.6994 101.386 13.6239C102.702 14.5484 103.74 15.6329 104.499 16.8774C105.259 18.11 105.638 19.4316 105.638 20.842V36.1317Z" fill="#444444"/>
<path d="M126.063 36.1317H118.824V15.7395H107.916V10.637H136.946V15.7395H126.063V36.1317Z" fill="#444444"/>
<path d="M175.187 23.4911C175.187 24.7 174.96 25.8675 174.504 26.9935C174.065 28.1076 173.441 29.1565 172.631 30.1403C171.821 31.1122 170.843 32.0011 169.695 32.8071C168.548 33.6131 167.282 34.3064 165.899 34.8872C164.515 35.4561 163.022 35.8947 161.419 36.2028C159.816 36.5229 158.154 36.6829 156.433 36.6829C154.712 36.6829 153.05 36.5229 151.448 36.2028C149.861 35.8947 148.368 35.4561 146.968 34.8872C145.584 34.3064 144.319 33.6131 143.172 32.8071C142.024 32.0011 141.037 31.1122 140.21 30.1403C139.4 29.1565 138.768 28.1076 138.312 26.9935C137.873 25.8675 137.654 24.7 137.654 23.4911C137.654 22.2821 137.873 21.1146 138.312 19.9886C138.768 18.8627 139.4 17.8137 140.21 16.8418C141.037 15.8699 142.024 14.981 143.172 14.175C144.319 13.369 145.584 12.6816 146.968 12.1127C148.368 11.5437 149.861 11.1052 151.448 10.797C153.05 10.477 154.712 10.317 156.433 10.317C158.154 10.317 159.816 10.477 161.419 10.797C163.022 11.1052 164.515 11.5437 165.899 12.1127C167.282 12.6816 168.548 13.369 169.695 14.175C170.843 14.981 171.821 15.8699 172.631 16.8418C173.441 17.8137 174.065 18.8627 174.504 19.9886C174.96 21.1146 175.187 22.2821 175.187 23.4911ZM167.974 23.4911C167.974 22.3769 167.671 21.328 167.063 20.3442C166.456 19.3486 165.629 18.4893 164.583 17.7663C163.554 17.0315 162.33 16.4507 160.913 16.024C159.513 15.5973 158.019 15.384 156.433 15.384C154.83 15.384 153.329 15.5973 151.928 16.024C150.528 16.4507 149.305 17.0315 148.259 17.7663C147.212 18.4893 146.386 19.3486 145.778 20.3442C145.171 21.328 144.867 22.3769 144.867 23.4911C144.867 24.6052 145.171 25.6541 145.778 26.6379C146.386 27.6098 147.212 28.4632 148.259 29.198C149.305 29.9329 150.528 30.5137 151.928 30.9403C153.329 31.367 154.83 31.5804 156.433 31.5804C158.019 31.5804 159.513 31.367 160.913 30.9403C162.33 30.5137 163.554 29.9329 164.583 29.198C165.629 28.4632 166.456 27.6098 167.063 26.6379C167.671 25.6541 167.974 24.6052 167.974 23.4911Z" fill="#444444"/>
<path d="M209 36.1317H201.23L187.234 19.3486V36.1317H179.971V10.637H187.741L201.736 27.4379V10.637H209V36.1317Z" fill="#444444"/>
<path d="M36.1955 37.6648C34.2225 39.0611 32.0127 40.1327 29.5661 40.8796C27.1195 41.6264 24.5842 41.9999 21.96 41.9999C19.9475 41.9999 18.004 41.7807 16.1297 41.3423C14.275 40.9202 12.5288 40.3194 10.8912 39.5401C9.27332 38.7445 7.79353 37.7947 6.45186 36.6907C5.11019 35.5866 3.95596 34.3689 2.98916 33.0375C2.0421 31.6899 1.30221 30.253 0.769488 28.7268C0.256496 27.1844 0 25.5851 0 23.929C0 22.2729 0.256496 20.6737 0.769488 19.1312C1.30221 17.5888 2.0421 16.1519 2.98916 14.8205C3.95596 13.4729 5.11019 12.2471 6.45186 11.143C7.79353 10.039 9.27332 9.09726 10.8912 8.31792C12.5288 7.52235 14.275 6.91349 16.1297 6.49135C18.004 6.05297 19.9475 5.83379 21.96 5.83379C24.5842 5.83379 27.1195 6.20722 29.5661 6.95408C32.0127 7.68471 34.2225 8.7563 36.1955 10.1688L31.697 16.2574C30.454 15.1534 28.9841 14.3091 27.2872 13.7246C25.5904 13.1238 23.8147 12.8235 21.96 12.8235C20.0856 12.8235 18.3296 13.1157 16.692 13.7002C15.0543 14.2847 13.6239 15.0803 12.4006 16.0869C11.1773 17.0773 10.2105 18.2545 9.50022 19.6183C8.78992 20.9659 8.43477 22.4028 8.43477 23.929C8.43477 25.4552 8.78992 26.8921 9.50022 28.2397C10.2105 29.5711 11.1773 30.7401 12.4006 31.7467C13.6239 32.7534 15.0543 33.5489 16.692 34.1334C18.3296 34.718 20.0856 35.0102 21.96 35.0102C23.8147 35.0102 25.5904 34.718 27.2872 34.1334C28.9841 33.5327 30.454 32.6803 31.697 31.5763L36.1955 37.6648Z" fill="#444444"/>
<path d="M17.0221 36.449H22.8502V47H17.0221V36.449Z" fill="#444444"/>
<path d="M17.0221 0H22.8502V10.551H17.0221V0Z" fill="#444444"/>
</svg>
