<svg width="83" height="52" viewBox="0 0 83 52" fill="none" xmlns="http://www.w3.org/2000/svg">
<path d="M41.7039 14.1359C42.7931 15.6147 43.5956 17.2047 44.1114 18.9057C44.633 20.586 44.8914 22.3114 44.8868 24.082C44.8954 25.845 44.6486 27.6051 44.1462 29.3622C43.657 31.1118 42.9491 32.7849 42.0226 34.3816C41.1092 35.9707 39.9885 37.4419 38.6604 38.7951C37.3456 40.1408 35.8564 41.2884 34.1928 42.238C33.097 42.8635 31.8891 43.3692 30.569 43.7551C29.2696 44.1467 27.8714 44.2884 26.3743 44.1803C25.269 45.0038 24.1693 45.9291 23.0751 46.9562C21.9942 47.9758 20.9199 49.1142 19.852 50.3714C19.013 46.1416 17.909 42.0456 16.5401 38.0834C15.1768 34.1004 13.4608 30.2662 11.3921 26.5808C11.0506 27.0559 10.7213 27.5676 10.4043 28.1162C10.0797 28.6515 9.78061 29.2161 9.50692 29.81C9.36379 29.4366 9.20839 29.0877 9.04073 28.7633C8.87873 28.4181 8.70352 28.0805 8.51512 27.7505C7.5957 26.1397 6.49139 24.7571 5.20219 23.6025C3.91866 22.4272 2.4559 21.4592 0.813909 20.6986C1.21197 20.2613 1.70998 19.7845 2.30795 19.2681C2.90592 18.7517 3.55103 18.226 4.24329 17.6908C4.94875 17.1481 5.67495 16.611 6.42188 16.0796C7.18202 15.5407 7.92329 15.0301 8.64569 14.5477C9.36809 14.0653 10.0518 13.6225 10.6969 13.2193C11.3419 12.8161 11.9021 12.4788 12.3774 12.2075C14.3314 11.0922 16.2673 10.2059 18.1853 9.54872C20.0957 8.87834 21.9466 8.42572 23.738 8.19085C25.5219 7.94278 27.2189 7.91057 28.8291 8.09422C30.445 8.25713 31.9354 8.6142 33.3003 9.16542C34.6576 9.70344 35.8754 10.4262 36.9535 11.3336C38.0316 12.2411 38.9249 13.3154 39.6333 14.5564C39.7464 14.7544 39.8632 14.9591 39.9837 15.1703C40.0968 15.3684 40.1966 15.5739 40.2833 15.787C40.553 15.493 40.8068 15.2169 41.0445 14.9587C41.2747 14.6873 41.4945 14.413 41.7039 14.1359ZM33.5805 20.9259C32.8548 20.2373 32.0698 19.7052 31.2252 19.3296C30.3938 18.9465 29.5351 18.684 28.6489 18.5421C27.7759 18.3928 26.8954 18.3528 26.0073 18.4221C25.1323 18.4839 24.2743 18.6061 23.4333 18.7886C22.6054 18.9636 21.8181 19.1942 21.0713 19.4805C20.3169 19.7535 19.6276 20.0332 19.0033 20.3195C20.7705 23.5994 22.5659 26.8368 24.3897 30.0318C26.0627 32.9628 27.7678 35.858 29.505 38.7173C30.5803 37.5959 31.4869 36.3782 32.2248 35.0643C32.9759 33.7429 33.4724 32.3742 33.7144 30.9582C33.9621 29.5215 33.9222 28.0564 33.5948 26.5629C33.2674 25.0693 32.5837 23.5954 31.5435 22.1412C31.8471 21.9678 32.1706 21.7832 32.5139 21.5873C32.8571 21.3913 33.2127 21.1709 33.5805 20.9259Z" fill="#31E4A4"/>
<path d="M70.0565 8.62728C69.0633 11.4872 68.1088 14.3689 67.193 17.2723C66.2903 20.1681 65.4452 23.1187 64.6575 26.1239C67.3365 26.9227 70.0184 27.6499 72.7032 28.3055C75.4011 28.9535 78.1265 29.5421 80.8792 30.0714C78.7536 31.2847 76.89 32.5585 75.2885 33.8927C73.7003 35.2194 72.2637 36.6433 70.979 38.1644C69.5802 37.4925 68.1832 36.8545 66.7882 36.2505C65.3988 35.6257 64.0122 35.0518 62.6285 34.5289C62.2827 36.0391 61.9614 37.5615 61.6647 39.0963C61.3812 40.6234 61.0985 42.1676 60.8169 43.7287C59.806 44.1657 58.8771 44.6084 58.0303 45.0568C57.1967 45.4976 56.3904 45.9404 55.6114 46.385C54.6212 46.9502 53.5905 47.5823 52.5191 48.2814C51.4478 48.9804 50.3463 49.7493 49.2145 50.5878C50.3077 47.4432 51.3312 44.3296 52.2848 41.2471C53.2309 38.1514 54.0771 35.034 54.8234 31.8949C51.9294 31.0262 49.0392 30.2866 46.1526 29.6762C43.2585 29.0527 40.3484 28.5083 37.4222 28.043C39.4064 26.8579 41.2897 25.5728 43.0722 24.1878C44.868 22.7952 46.5261 21.2535 48.0467 19.5629C49.4549 20.2819 50.8678 20.9633 52.2854 21.6069C53.6956 22.2374 55.1236 22.8225 56.5696 23.3625C56.8286 22.0069 57.0574 20.6597 57.256 19.3211C57.447 17.9692 57.6032 16.6022 57.7245 15.2201C59.0069 14.7682 60.23 14.2889 61.3936 13.7822C62.5497 13.2623 63.6427 12.7085 64.6725 12.1206C65.5042 11.6459 66.3539 11.1258 67.2215 10.5606C68.1024 9.98776 69.0474 9.34333 70.0565 8.62728Z" fill="#31E4A4"/>
</svg>
