<svg width="209" height="47" viewBox="0 0 209 47" fill="none" xmlns="http://www.w3.org/2000/svg">
<path d="M50.4648 15.7396V25.9446H57.7285C58.7239 25.9446 59.6604 25.8142 60.5377 25.5534C61.4151 25.2808 62.1828 24.9134 62.8409 24.4512C63.4989 23.9889 64.0135 23.4496 64.3847 22.8333C64.7728 22.2051 64.9668 21.5414 64.9668 20.8421C64.9668 20.1428 64.7728 19.485 64.3847 18.8686C64.0135 18.2405 63.4989 17.6952 62.8409 17.233C62.1828 16.7707 61.4151 16.4092 60.5377 16.1485C59.6604 15.8759 58.7239 15.7396 57.7285 15.7396H50.4648ZM50.4648 36.1318H43.2011V10.6371H57.7285C59.0614 10.6371 60.3437 10.7615 61.5754 11.0104C62.8071 11.2475 63.9545 11.5912 65.0174 12.0416C66.0973 12.4801 67.0759 13.0135 67.9533 13.6417C68.8475 14.258 69.6068 14.9455 70.2311 15.704C70.8722 16.4626 71.3615 17.2745 71.699 18.1397C72.0533 19.0049 72.2305 19.9057 72.2305 20.8421C72.2305 21.7192 72.0702 22.5725 71.7496 23.4022C71.4459 24.2319 70.9988 25.0201 70.4082 25.7668C69.8346 26.5135 69.1259 27.2009 68.2823 27.8291C67.4387 28.4573 66.4938 29.0025 65.4477 29.4648L69.4718 36.1318H61.7526L58.589 30.9937L50.4648 31.0293V36.1318Z" fill="white"/>
<path d="M98.3746 25.9446V20.8421C98.3746 20.1428 98.1806 19.485 97.7925 18.8686C97.4213 18.2405 96.9067 17.6952 96.2487 17.233C95.5906 16.7707 94.8145 16.4092 93.9202 16.1485C93.0429 15.8759 92.1064 15.7396 91.111 15.7396C90.1155 15.7396 89.1706 15.8759 88.2763 16.1485C87.399 16.4092 86.6313 16.7707 85.9732 17.233C85.3152 17.6952 84.7921 18.2405 84.4041 18.8686C84.0329 19.485 83.8473 20.1428 83.8473 20.8421V25.9446H98.3746ZM105.638 36.1318H98.3746V31.0293H83.8473V36.1318H76.6089V20.8421C76.6089 19.4316 76.9886 18.1101 77.7478 16.8774C78.5071 15.6329 79.5363 14.5484 80.8355 13.6239C82.1516 12.6994 83.687 11.9705 85.4417 11.4371C87.2134 10.9038 89.1031 10.6371 91.111 10.6371C93.1188 10.6371 95.0001 10.9038 96.7548 11.4371C98.5265 11.9705 100.07 12.6994 101.386 13.6239C102.702 14.5484 103.74 15.6329 104.499 16.8774C105.259 18.1101 105.638 19.4316 105.638 20.8421V36.1318Z" fill="white"/>
<path d="M126.063 36.1318H118.824V15.7396H107.916V10.6371H136.945V15.7396H126.063V36.1318Z" fill="white"/>
<path d="M175.187 23.4911C175.187 24.7001 174.959 25.8675 174.504 26.9935C174.065 28.1077 173.441 29.1566 172.631 30.1404C171.821 31.1123 170.843 32.0012 169.695 32.8072C168.548 33.6131 167.282 34.3065 165.899 34.8873C164.515 35.4562 163.022 35.8947 161.419 36.2029C159.816 36.5229 158.154 36.6829 156.433 36.6829C154.712 36.6829 153.05 36.5229 151.447 36.2029C149.861 35.8947 148.368 35.4562 146.968 34.8873C145.584 34.3065 144.319 33.6131 143.171 32.8072C142.024 32.0012 141.037 31.1123 140.21 30.1404C139.4 29.1566 138.768 28.1077 138.312 26.9935C137.873 25.8675 137.654 24.7001 137.654 23.4911C137.654 22.2822 137.873 21.1147 138.312 19.9887C138.768 18.8627 139.4 17.8138 140.21 16.8419C141.037 15.87 142.024 14.981 143.171 14.1751C144.319 13.3691 145.584 12.6816 146.968 12.1127C148.368 11.5438 149.861 11.1053 151.447 10.7971C153.05 10.4771 154.712 10.3171 156.433 10.3171C158.154 10.3171 159.816 10.4771 161.419 10.7971C163.022 11.1053 164.515 11.5438 165.899 12.1127C167.282 12.6816 168.548 13.3691 169.695 14.1751C170.843 14.981 171.821 15.87 172.631 16.8419C173.441 17.8138 174.065 18.8627 174.504 19.9887C174.959 21.1147 175.187 22.2822 175.187 23.4911ZM167.974 23.4911C167.974 22.377 167.671 21.328 167.063 20.3443C166.456 19.3487 165.629 18.4894 164.583 17.7664C163.554 17.0315 162.33 16.4507 160.913 16.024C159.513 15.5974 158.019 15.384 156.433 15.384C154.83 15.384 153.329 15.5974 151.928 16.024C150.528 16.4507 149.305 17.0315 148.259 17.7664C147.212 18.4894 146.386 19.3487 145.778 20.3443C145.171 21.328 144.867 22.377 144.867 23.4911C144.867 24.6052 145.171 25.6542 145.778 26.6379C146.386 27.6098 147.212 28.4632 148.259 29.1981C149.305 29.9329 150.528 30.5137 151.928 30.9404C153.329 31.3671 154.83 31.5804 156.433 31.5804C158.019 31.5804 159.513 31.3671 160.913 30.9404C162.33 30.5137 163.554 29.9329 164.583 29.1981C165.629 28.4632 166.456 27.6098 167.063 26.6379C167.671 25.6542 167.974 24.6052 167.974 23.4911Z" fill="white"/>
<path d="M209 36.1318H201.23L187.234 19.3487V36.1318H179.971V10.6371H187.741L201.736 27.438V10.6371H209V36.1318Z" fill="white"/>
<path d="M36.1955 37.6648C34.2225 39.0611 32.0127 40.1327 29.5661 40.8796C27.1195 41.6264 24.5842 41.9999 21.96 41.9999C19.9475 41.9999 18.004 41.7807 16.1297 41.3423C14.275 40.9202 12.5288 40.3194 10.8912 39.5401C9.27332 38.7445 7.79353 37.7947 6.45186 36.6907C5.11019 35.5866 3.95596 34.3689 2.98916 33.0375C2.0421 31.6899 1.30221 30.253 0.769488 28.7268C0.256496 27.1844 0 25.5851 0 23.929C0 22.2729 0.256496 20.6737 0.769488 19.1312C1.30221 17.5888 2.0421 16.1519 2.98916 14.8205C3.95596 13.4729 5.11019 12.2471 6.45186 11.143C7.79353 10.039 9.27332 9.09726 10.8912 8.31792C12.5288 7.52235 14.275 6.91349 16.1297 6.49135C18.004 6.05297 19.9475 5.83379 21.96 5.83379C24.5842 5.83379 27.1195 6.20722 29.5661 6.95408C32.0127 7.68471 34.2225 8.7563 36.1955 10.1688L31.697 16.2574C30.454 15.1534 28.9841 14.3091 27.2872 13.7246C25.5904 13.1238 23.8147 12.8235 21.96 12.8235C20.0856 12.8235 18.3296 13.1157 16.692 13.7002C15.0543 14.2847 13.6239 15.0803 12.4006 16.0869C11.1773 17.0773 10.2105 18.2545 9.50022 19.6183C8.78992 20.9659 8.43477 22.4028 8.43477 23.929C8.43477 25.4552 8.78992 26.8921 9.50022 28.2397C10.2105 29.5711 11.1773 30.7401 12.4006 31.7467C13.6239 32.7534 15.0543 33.5489 16.692 34.1334C18.3296 34.718 20.0856 35.0102 21.96 35.0102C23.8147 35.0102 25.5904 34.718 27.2872 34.1334C28.9841 33.5327 30.454 32.6803 31.697 31.5763L36.1955 37.6648Z" fill="white"/>
<path d="M17.0221 36.449H22.8502V47H17.0221V36.449Z" fill="white"/>
<path d="M17.0221 0H22.8502V10.551H17.0221V0Z" fill="white"/>
</svg>
