<svg width="50" height="50" viewBox="0 0 50 50" fill="none" xmlns="http://www.w3.org/2000/svg">
<g clip-path="url(#clip0)">
<path d="M25 1.04169C11.1875 1.04169 0 12.0417 0 25.6083C0 36.4646 7.1625 45.6708 17.0938 48.9167C18.3438 49.1479 18.8021 48.3875 18.8021 47.7354C18.8021 47.1521 18.7812 45.6063 18.7708 43.5583C11.8167 45.0396 10.35 40.2625 10.35 40.2625C9.2125 37.4271 7.56875 36.6688 7.56875 36.6688C5.30417 35.1458 7.74375 35.1771 7.74375 35.1771C10.2542 35.3479 11.5729 37.7083 11.5729 37.7083C13.8021 41.4646 17.425 40.3792 18.8542 39.7521C19.0792 38.1625 19.7229 37.0813 20.4375 36.4667C14.8854 35.8521 9.05 33.7396 9.05 24.3271C9.05 21.6459 10.0187 19.4542 11.6229 17.7354C11.3417 17.1146 10.4979 14.6167 11.8417 11.2334C11.8417 11.2334 13.9354 10.575 18.7167 13.7521C20.7167 13.2063 22.8417 12.9354 24.9667 12.9229C27.0917 12.9354 29.2167 13.2063 31.2167 13.7521C35.9667 10.575 38.0604 11.2334 38.0604 11.2334C39.4042 14.6167 38.5604 17.1146 38.3104 17.7354C39.9042 19.4542 40.8729 21.6459 40.8729 24.3271C40.8729 33.7646 35.0292 35.8417 29.4667 36.4458C30.3417 37.1833 31.1542 38.6896 31.1542 40.9917C31.1542 44.2792 31.1229 46.9208 31.1229 47.7188C31.1229 48.3625 31.5604 49.1313 32.8417 48.8854C42.8438 45.6604 50 36.4479 50 25.6083C50 12.0417 38.8062 1.04169 25 1.04169Z" fill="#C2C2C2"/>
</g>
<defs>
<clipPath id="clip0">
<rect width="50" height="50" fill="white"/>
</clipPath>
</defs>
</svg>
