<svg width="50" height="50" viewBox="0 0 50 50" fill="none" xmlns="http://www.w3.org/2000/svg">
<path d="M7.22265 2.53894C3.78542 2.53894 1.53809 4.796 1.53809 7.7626C1.53809 10.6637 3.71847 12.9851 7.09076 12.9851H7.15599C10.6605 12.9851 12.8414 10.6637 12.8414 7.7626C12.7759 4.796 10.6605 2.53894 7.22265 2.53894Z" fill="#C2C2C2"/>
<path d="M2.13184 17.1127H12.1803V47.344H2.13184V17.1127Z" fill="#C2C2C2"/>
<path d="M36.8447 16.4032C31.4239 16.4032 27.789 21.497 27.789 21.497V17.1127H17.7402V47.344H27.7884V30.4617C27.7884 29.5579 27.854 28.6555 28.1195 28.0092C28.8459 26.2045 30.499 24.3348 33.275 24.3348C36.9111 24.3348 38.3654 27.1071 38.3654 31.1712V47.344H48.413V30.0099C48.413 20.7242 43.4554 16.4032 36.8447 16.4032Z" fill="#C2C2C2"/>
</svg>
